# xmcd CD database file
#
# Track frame offsets:
#	150
#	18289
#	32966
#	45838
#	62124
#	72318
#	83376
#	96656
#	111562
#	128708
#	150086
#	169134
#	183870
#	196519
#
# Disc length: 2744 seconds
#
# Revision: 0
# Processed by: cddbd v1.5.2PL0 Copyright (c) Steve Scherf et al.
# Submitted via: ACXtractor (MTCDDB.DLL V2003.07.15)
#
DISCID=a90ab60e
DTITLE=Brian Letton - Any Dream Will do
DYEAR=2003
DGENRE=Country
TTITLE0=Paradise Lost
TTITLE1=Song of Freedom
TTITLE2=Top of the World
TTITLE3=What a wonderful World
TTITLE4=Try a Little Kindness
TTITLE5=I'd Like to Teach the World to Sing
TTITLE6=I Have a Dream
TTITLE7=Any Dream Will Do
TTITLE8=Everything is Beautiful
TTITLE9=Pure Imagination
TTITLE10=He Aint Heavy, He's My Brother
TTITLE11=You'll Never Walk Alone
TTITLE12=Born Free
TTITLE13=Smile
EXTD=ID3G:   2 YEAR: 2003
EXTT0=
EXTT1=
EXTT2=
EXTT3=
EXTT4=
EXTT5=
EXTT6=
EXTT7=
EXTT8=
EXTT9=
EXTT10=
EXTT11=
EXTT12=
EXTT13=
PLAYORDER=
